<svg viewBox="0 0 16 16" xmlns="http://www.w3.org/2000/svg" fill-rule="evenodd" clip-rule="evenodd" stroke-linejoin="round" stroke-miterlimit="1.414"><path d="M8 16A8 8 0 1 0 8 0a8 8 0 0 0 0 16zm0-2A6 6 0 1 0 8 2a6 6 0 0 0 0 12zm-1.371-2.568H5.371a.629.629 0 0 1-.629-.629V5.197c0-.348.282-.629.629-.629h1.258c.347 0 .629.281.629.629v5.606a.629.629 0 0 1-.629.629zm4 0H9.371a.629.629 0 0 1-.629-.629V5.197c0-.348.282-.629.629-.629h1.258c.347 0 .629.281.629.629v5.606a.629.629 0 0 1-.629.629z"/></svg>