<svg viewBox="0 0 16 16" xmlns="http://www.w3.org/2000/svg" fill-rule="evenodd" clip-rule="evenodd" stroke-linejoin="round" stroke-miterlimit="1.414"><path d="M6.079 2.249H4.872c-.72 0-1.25.076-1.588.227-.338.152-.622.453-.852.904-.23.451-.368.986-.418 1.605H.818V1h14.365v3.985h-1.196c-.226-1.073-.544-1.798-.953-2.173-.41-.375-1.062-.563-1.958-.563h-1.24v9.891c0 .64.112 1.086.335 1.337.222.251.689.377 1.402.377h.37V15H4.016v-1.146h.339c.719 0 1.187-.129 1.402-.387.215-.258.323-.701.323-1.327V2.249z"/></svg>