<svg viewBox="0 0 16 16" xmlns="http://www.w3.org/2000/svg" fill-rule="evenodd" clip-rule="evenodd" stroke-linejoin="round" stroke-miterlimit="1.414"><g transform="translate(-.01 .699)"><clipPath id="a"><path d="M8 0C3.582 0 0 3.03 0 6.769c0 1.323.455 2.553 1.231 3.597v4.403l3.322-1.898A9.16 9.16 0 0 0 8 13.538c4.418 0 8-3.03 8-6.769C16 3.03 12.418 0 8 0z"/></clipPath><g clip-path="url(#a)"><path d="M8 0C3.582 0 0 3.03 0 6.769c0 1.323.455 2.553 1.231 3.597v4.403l3.322-1.898A9.16 9.16 0 0 0 8 13.538c4.418 0 8-3.03 8-6.769C16 3.03 12.418 0 8 0zm0 2C5.285 2 2 4.322 2 6.769c0 1.323.442 2.43 1.217 3.474l-.236 1.494 1.572-.866A9.16 9.16 0 0 0 8 11.538c4.105 0 6-2.498 6-4.769C14 3.731 10.715 2 8 2z"/></g></g></svg>