<svg viewBox="0 0 16 16" xmlns="http://www.w3.org/2000/svg" fill-rule="evenodd" clip-rule="evenodd" stroke-linejoin="round" stroke-miterlimit="1.414"><path d="M15.205 4.539h-2.481c-1.205-1.195-3.075-1.84-4.733-1.84-2.715 0-6 2.322-6 4.769 0 1.323.442 2.43 1.217 3.474l-.236 1.494 1.572-.866c.166.068.336.131.509.189v2a8.322 8.322 0 0 1-.509-.189l-3.322 1.898v-4.403C.446 10.021-.009 8.791-.009 7.468c0-3.739 3.582-6.769 8-6.769 3.178 0 5.923 1.568 7.214 3.84zm.77 3.917h-.82c-.154-.737-.372-1.233-.653-1.491-.281-.257-.728-.385-1.343-.385h-.849v6.782c0 .439.076.745.229.917.152.172.472.258.961.258h.254v.786H8.317v-.786h.233c.493 0 .814-.088.962-.265.147-.177.221-.481.221-.91V6.58h-.828c-.493 0-.856.052-1.088.155-.233.104-.427.311-.585.62a2.911 2.911 0 0 0-.286 1.101h-.821V5.723h9.85v2.733z"/></svg>