<svg viewBox="0 0 16 16" xmlns="http://www.w3.org/2000/svg" fill-rule="evenodd" clip-rule="evenodd" stroke-linejoin="round" stroke-miterlimit="1.414"><path d="M6.707 3.053L4.915 1.55 6.2.018l1.507 1.264L9.213.018l1.285 1.532-1.791 1.503v3.483l3.292-1.901.406-2.304 1.97.347-.342 1.937 1.848.672-.684 1.88-2.198-.8-3 1.731 3 1.731 2.198-.8.684 1.88-1.848.672.342 1.937-1.97.347-.406-2.304-3.292-1.9v3.277l1.79 1.504-1.284 1.532-1.506-1.264L6.2 15.974l-1.285-1.532 1.792-1.504V10l-2.705 1.561-.407 2.304-1.97-.347.342-1.937-1.847-.672.684-1.88 2.198.8L6 8.098 3.002 6.367l-2.198.8-.684-1.88 1.847-.672-.341-1.937 1.969-.347.407 2.304 2.705 1.561V3.053z"/></svg>