<svg viewBox="0 0 16 16" xmlns="http://www.w3.org/2000/svg" fill-rule="evenodd" clip-rule="evenodd" stroke-linejoin="round" stroke-miterlimit="1.414"><path d="M3.9 15a3.3 3.3 0 0 0 3.3-3.3C7.2 9.877 3.9 4 3.9 4S.6 9.877.6 11.7A3.3 3.3 0 0 0 3.9 15zm0-1.411c.963 0 1.743-.941 1.743-2.1 0-1.16-1.743-4.9-1.743-4.9s-1.743 3.74-1.743 4.9c0 1.159.78 2.1 1.743 2.1zM13 9a2.4 2.4 0 0 0 2.4-2.4C15.4 5.275 13 1 13 1s-2.4 4.275-2.4 5.6A2.4 2.4 0 0 0 13 9zm0-1.187c.649 0 1.175-.601 1.175-1.342 0-.741-1.175-3.13-1.175-3.13s-1.175 2.389-1.175 3.13c0 .741.526 1.342 1.175 1.342z"/></svg>