<svg viewBox="0 0 16 16" xmlns="http://www.w3.org/2000/svg" fill-rule="evenodd" clip-rule="evenodd" stroke-linejoin="round" stroke-miterlimit="1.414"><path d="M13.906.781l-2.531 2.531C10.344 2.75 9.219 2.375 8 2.375c-3.375 0-6 2.906-7.125 4.594-.469.656-.469 1.5 0 2.062.469.75 1.312 1.688 2.25 2.532L.781 13.905a.906.906 0 0 0 0 1.313c.188.187.375.281.656.281.282 0 .47-.094.657-.281L15.219 2.094a.906.906 0 0 0 0-1.313.906.906 0 0 0-1.313 0zm.281 4.969L6.5 13.438c.469.093 1.031.187 1.5.187 3.375 0 6-2.906 7.125-4.594.469-.656.469-1.5 0-2.156-.188-.281-.563-.656-.938-1.125zM5.47 9.219A2.595 2.595 0 0 1 5.187 8c0-1.594 1.22-2.813 2.813-2.813.469 0 .844.094 1.219.282l-3.75 3.75z"/></svg>