<svg viewBox="0 0 16 16" xmlns="http://www.w3.org/2000/svg" fill-rule="evenodd" clip-rule="evenodd" stroke-linejoin="round" stroke-miterlimit="1.414"><path d="M2.804 7.84l-.167.167a3.793 3.793 0 0 0-.006 5.365 3.796 3.796 0 0 0 5.365-.006l2.37-2.37a3.793 3.793 0 0 0-.44-5.748L8.707 6.465a2.109 2.109 0 0 1 .469 3.339l-2.373 2.373a2.103 2.103 0 0 1-2.982.004A2.107 2.107 0 0 1 3.826 9.2l.17-.17-1.192-1.19zm10.391.32l.167-.167a3.793 3.793 0 0 0 .007-5.365 3.798 3.798 0 0 0-5.366.006l-2.369 2.37a3.792 3.792 0 0 0 .441 5.748l1.217-1.217a2.106 2.106 0 0 1-.469-3.338l2.373-2.374A2.104 2.104 0 1 1 12.173 6.8l-.168.169 1.19 1.19z"/></svg>