<svg viewBox="0 0 16 16" xmlns="http://www.w3.org/2000/svg" fill-rule="evenodd" clip-rule="evenodd" stroke-linejoin="round" stroke-miterlimit="1.414"><path d="M9.634 12.83a4.213 4.213 0 0 1-5.866 0c-1.646-1.585-1.749-3.963-.103-5.449l4.631-4.458c1.029-.991 2.676-.991 3.602 0 1.029.99 1.029 2.575 0 3.467L8.296 9.957a1.021 1.021 0 0 1-1.44 0c-.412-.397-.412-.991 0-1.387l2.881-2.774-1.544-1.387-2.778 2.675c-1.235 1.188-1.235 3.071 0 4.161 1.235 1.089 3.19 1.188 4.322 0l3.705-3.567c1.852-1.783 1.852-4.557 0-6.341a4.723 4.723 0 0 0-6.586 0L2.225 5.994c-2.367 2.278-2.264 5.944.102 8.223A6.274 6.274 0 0 0 6.753 16c1.646 0 3.19-.594 4.322-1.783l4.425-4.26-1.441-1.387-4.425 4.26z"/></svg>