<svg viewBox="0 0 16 16" xmlns="http://www.w3.org/2000/svg" fill-rule="evenodd" clip-rule="evenodd" stroke-linejoin="round" stroke-miterlimit="1.414"><path d="M7.431 13.515h-.387a4.09 4.09 0 0 1-2.894-1.199 4.09 4.09 0 0 1-1.199-2.894V6.003a.487.487 0 0 1 .487-.488h.018a.514.514 0 0 1 .513.513v3.357a3.13 3.13 0 0 0 3.13 3.13h1.696a3.174 3.174 0 0 0 3.174-3.174V5.995a.48.48 0 0 1 .48-.48h.029a.51.51 0 0 1 .509.509v3.429a4.062 4.062 0 0 1-4.063 4.062h-.476v1.498h2.498a.489.489 0 0 1 .487.486v.001a.497.497 0 0 1-.497.497H4.954a.495.495 0 0 1-.492-.492v-.01a.48.48 0 0 1 .483-.482h2.486v-1.498zm3.038-11.001A2.493 2.493 0 0 0 7.976.021h-.014a2.493 2.493 0 0 0-2.493 2.493v5.998a2.494 2.494 0 0 0 2.493 2.494h.008a2.5 2.5 0 0 0 2.499-2.499V2.514z"/></svg>