<svg viewBox="0 0 16 16" xmlns="http://www.w3.org/2000/svg" fill-rule="evenodd" clip-rule="evenodd" stroke-linejoin="round" stroke-miterlimit="1.414"><path d="M15.999 15.983h-16v-12h4.942a5.47 5.47 0 0 0-1.341 2H1.999v8h12V7.537l2-1.034v9.48zM12.698 3.325l-1.084-1.292A1 1 0 0 1 13.146.747l2.583 3.079a.98.98 0 0 1 .227.72l-.003.007a.99.99 0 0 1-.346.669l-3.078 2.583a.994.994 0 0 1-1.402-.13 1 1 0 0 1 .116-1.403l1.343-1.127c-6.774.517-6.341 6.498-6.341 6.498s-1.987.012-1.987 0c0-7.171 6.017-8.196 8.44-8.318z"/></svg>