<svg viewBox="0 0 16 16" xmlns="http://www.w3.org/2000/svg" fill-rule="evenodd" clip-rule="evenodd" stroke-linejoin="round" stroke-miterlimit="1.414"><path d="M8 16A8 8 0 1 0 8 0a8 8 0 0 0 0 16zm4.303-12.029A5.984 5.984 0 0 0 7.857 2a5.974 5.974 0 0 0-3.571 1.178c.053.181.23.473.23.59 0 .138-.136.438-.3.438-.164 0-.41.309-.41.437s.317.511-.038.948c-.355.437-.655.929-.765.929-.06 0-.547.019-.971.036a6.023 6.023 0 0 0 .56 4.323c.235-.138.446-.234.546-.157.319.245 1.192 0 1.466 0 .275 0 .466-.028.848.3.383.328.82.355.82.574 0 .218.335.573.683.819.348.246.675.028.894.41.218.382.246.273.246.628 0 .117-.124.323-.291.547h.053a6 6 0 0 0 5.967-6.639l-.191.103s-1.151.838-1.151 1.065c0 .227-.683.574-.929.71-.245.137-.764-1.1-.928-.937-.164.164-1.749-.027-2.541-.163-.792-.137-.655-.601-.893-.738-.237-.137 1.412-.483 1.412-.483s-.3-1.675-.172-1.675.883-.429.883-.429.437-.92.619-.92c.183 0 1.238.047 1.238.047l1.132.03z"/></svg>