<?xml version="1.0" encoding="UTF-8"?>
<svg width="179" height="53.75" enable-background="new 0 0 175.455 53.65" version="1.1" viewBox="0 0 178.99887 53.750117" xml:space="preserve" xmlns="http://www.w3.org/2000/svg" xmlns:cc="http://creativecommons.org/ns#" xmlns:dc="http://purl.org/dc/elements/1.1/" xmlns:osb="http://www.openswatchbook.org/uri/2009/osb" xmlns:rdf="http://www.w3.org/1999/02/22-rdf-syntax-ns#"><metadata><rdf:RDF><cc:Work rdf:about=""><dc:format>image/svg+xml</dc:format><dc:type rdf:resource="http://purl.org/dc/dcmitype/StillImage"/><dc:title/></cc:Work></rdf:RDF></metadata><defs><filter id="a" color-interpolation-filters="sRGB"><feGaussianBlur stdDeviation="1.0807535"/></filter></defs>
<rect x="-20.53" y="-218.91" width="1072.4" height="764.1" fill="none"/>
<rect x="-10.53" y="-208.91" width="1052.4" height="744.1" fill="none"/>
<path d="m17.725 3.6565c-1.565 0-2.9515 0.98375-3.4375 2.4688-1.601 4.884-9.4668 28.9-9.4688 28.906-0.349 1.086-0.14275 2.2798 0.53125 3.2188 0.677 0.93 1.7562 1.5 2.9062 1.5h2.9063c1.565 0 2.9515-1.013 3.4375-2.5l0.5-1.4688 0.34375 1.3125c0.429 1.563 1.8488 2.6562 3.4688 2.6562h3.5938c0.79029 0 1.5646-0.27885 2.1875-0.75 0.61637 0.46413 1.3877 0.74103 2.1875 0.75h2.8438c1.57 0 2.9525-0.998 3.4375-2.5l3.0938-9.6875c0.172-0.537 0.37875-1.0542 0.59375-1.5312 0.217-0.482 0.46575-0.956 0.71875-1.375 0.093-0.152 0.18125-0.269 0.28125-0.375 0.028-0.029 0.06475-0.06775 0.09375-0.09375 0.4531 0.2809 0.95323 0.4381 1.5 0.5l-6.75 20.688c-0.355 1.091-0.178 2.31 0.5 3.25 0.677 0.93 1.7572 1.4688 2.9062 1.4688h2.875c1.569 0 2.9322-0.9715 3.4062-2.4375l2.5938-7.6875c0.569 0.121 1.1572 0.1875 1.7812 0.1875 0.998 0 2.0232-0.1385 3.0312-0.4375 0.945-0.281 1.9028-0.68775 2.8438-1.2188 0.80792-0.45156 1.5917-1.01 2.3125-1.625 0.01178 0.01993 0.01927 0.04266 0.03125 0.0625 0.691 1.141 1.6855 2.0085 2.9375 2.5625 1.023 0.449 2.2082 0.65625 3.5312 0.65625 0.738 0 1.4858-0.06975 2.2188-0.21875 0.66-0.136 1.2995-0.34275 1.9375-0.59375 0.501 0.255 1.0852 0.40625 1.6562 0.40625h2.9688c0.41051 0 0.80808-0.08505 1.1875-0.21875 0.37268 0.12826 0.7541 0.21875 1.1562 0.21875h2.875c1.57 0 2.9525-0.998 3.4375-2.5l3.25-10.125c0.294-0.918 0.5995-1.682 0.9375-2.25 0.115-0.193 0.2235-0.3235 0.3125-0.4375l-3.4062 10.594c-0.345 1.086-0.14575 2.312 0.53125 3.25 0.674 0.919 1.7532 1.4628 2.9062 1.4688h2.8438c1.574 0 2.9565-1 3.4375-2.5l0.0625-0.1875c0.70656 0.8644 1.5485 1.5798 2.5625 2.0938 1.326 0.674 2.878 1 4.625 1 1.027 0 2.09-0.111 3.125-0.375 0.99099-0.254 1.9625-0.65925 2.9375-1.1562 0.81435-0.41511 1.5906-0.91624 2.3125-1.4688 0.837 1.511 2.4105 2.4062 4.1875 2.4062 1.258 0 2.535-0.4655 3.625-1.3125 0.33596-0.26221 0.62646-0.55613 0.90625-0.875 0.77134 0.83999 1.7244 1.5201 2.8125 2 1.192 0.529 2.5352 0.78125 3.9062 0.78125 0.27 0 0.5325-0.0082 0.8125-0.03125 0.517-0.041 1.0465-0.0945 1.5625-0.1875 0.53-0.094 1.0502-0.233 1.5312-0.375l0.34375-0.09375c0.344-0.092 0.7145-0.1915 1.0625-0.3125 0.86425-0.29667 1.538-0.64445 2.125-1.125 0.4934 0.42706 1.0256 0.82161 1.625 1.125 1.326 0.674 2.88 1 4.625 1 1.025 0 2.0538-0.111 3.0938-0.375 0.992-0.255 1.9988-0.66225 2.9688-1.1562 0.4885-0.2485 0.98075-0.51312 1.4375-0.8125 0.10316 0.23186 0.25402 0.4466 0.40625 0.65625 0.678 0.921 1.7642 1.4688 2.9062 1.4688h2.8438c1.578 0 2.9595-1.001 3.4375-2.5l0.1875-0.5625c0.087 0.568 0.30925 1.1148 0.65625 1.5938 0.679 0.921 1.7632 1.4688 2.9062 1.4688h2.8438c1.018 0 1.962-0.39675 2.625-1.0938 0.676 0.706 1.6068 1.125 2.5938 1.125l2.875-0.03125c1.577 0 2.9595-1.001 3.4375-2.5l3.625-11.375c0.254-0.789 0.476-1.4792 0.625-2.0312 0.179-0.67 0.28075-1.1972 0.34375-1.6562 0.091-0.67 0.13275-1.3075 0.0937-1.9375-0.043-0.688-0.173-1.3488-0.375-1.9688-0.261-0.789-0.685-1.5172-1.25-2.1562-0.505-0.568-1.1045-1.0445-1.8125-1.4375-0.65395-0.365-1.3912-0.66675-2.1562-0.84375-1.025-0.237-2.856-0.21875-2.875-0.21875-0.927 0-1.8378 0.0915-2.7188 0.3125-0.352 0.089-0.68525 0.22075-1.0312 0.34375-0.41-0.167-0.8665-0.3345-1.3125-0.4375-0.7-0.162-1.4408-0.21875-2.2188-0.21875-1.456 0-2.4152 0.28275-3.4062 0.71875-0.454-0.199-0.9385-0.3125-1.4375-0.3125h-2.5625c-1.561 0-2.9172 0.97879-3.4062 2.4375-0.69918-0.84499-1.54-1.522-2.5312-2.0312-1.324-0.68-2.8638-1.0312-4.5938-1.0312-1.438 0-2.883 0.24575-4.25 0.71875-1.0269 0.35418-2.0229 0.84814-3 1.4688-0.35105-0.39312-0.75693-0.75223-1.25-1.0312-0.55-0.315-1.0872-0.491-1.5312-0.625-1.132-0.345-2.3292-0.53125-3.5312-0.53125-0.437 0-0.86025 0.0185-1.2812 0.0625-1.559 0.163-3.0922 0.62375-4.5312 1.3438-0.379 0.191-0.753 0.396-1.125 0.625-0.358 0.22-0.7125 0.46475-1.0625 0.71875-1.475 1.077-2.7718 2.4425-3.8438 4.0625-1.018 1.538-1.852 3.354-2.5 5.375-0.33484 1.0419-0.55926 2.0262-0.71875 2.9688-0.29229-0.07091-0.59588-0.10802-0.90625-0.125 0.10774-0.30314 0.21109-0.59036 0.3125-0.90625 0.581-1.812 0.90125-3.5052 0.90625-5.0312 3e-3 -1.775-0.38625-3.377-1.1562-4.75-0.816-1.46-1.9835-2.5655-3.4375-3.3125-1.324-0.68-2.8638-1.0312-4.5938-1.0312-1.438 0-2.8517 0.24575-4.2187 0.71875-1.327 0.458-2.643 1.1352-3.875 2.0312-0.48035 0.3505-0.9349 0.74545-1.375 1.1562-0.24435-0.50351-0.52998-0.9848-0.90625-1.4062-0.506-0.57-1.1278-1.0415-1.8438-1.4375-0.655-0.364-1.367-0.6375-2.125-0.8125-0.7-0.162-1.472-0.25-2.25-0.25-1.384 0-2.717 0.26-4 0.75-0.463-0.208-0.95775-0.34375-1.4688-0.34375h-2.5938c-1.2476 0-2.3494 0.65647-3 1.6562-0.5013-0.44119-1.0678-0.83033-1.75-1.1562-0.467-0.219-1.0012-0.39825-1.5312-0.53125-0.478-0.121-0.9815-0.23225-1.4375-0.28125-0.244-0.034-0.484-0.0435-0.75-0.0625-0.263-0.018-0.55875-0.03125-0.84375-0.03125-0.801 0-1.602 0.088-2.375 0.25-0.774 0.164-1.523 0.421-2.25 0.75-0.546 0.252-1.0825 0.53225-1.4375 0.78125-1.1265 0.69973-1.953 1.6307-2.4375 2.7188-0.40369-0.85344-0.92851-1.6043-1.5938-2.25-0.79-0.765-1.703-1.3438-2.75-1.7188-0.955-0.345-2.0172-0.53125-3.1562-0.53125-0.821 0-1.6402 0.10325-2.4062 0.28125-0.441 0.101-0.8835 0.211-1.3125 0.375-0.418-0.165-0.8565-0.25-1.3125-0.25h-2.5938c-0.87144 0-1.6811 0.31779-2.3125 0.84375-0.45228-0.29665-0.94183-0.55761-1.4375-0.75-0.852-0.329-1.7342-0.5-2.6562-0.5-0.692 0-1.4098 0.1015-2.0938 0.3125-0.228 0.071-0.42825 0.155-0.65625 0.25-0.331-0.097-0.68525-0.15625-1.0312-0.15625h-2.5625c-0.92726 0-1.7892 0.37637-2.4375 0.96875-0.65273-0.60647-1.536-0.96875-2.4688-0.96875h-3.7812c-0.761 0-1.5 0.26475-2.125 0.71875 0.822-2.499 1.7518-5.3008 2.0938-6.3438 0.355-1.092 0.172-2.2888-0.5-3.2188-0.676-0.936-1.7845-1.5-2.9375-1.5h-2.9375zm9.7188 18.906-2.6875 8.375-1.5-5.0938 4.1875-3.2812zm98.75 0.8125 0.0937 0.03125c0.22702 0.14017 0.45774 0.23816 0.6875 0.34375-0.27496 0.65376-0.52233 1.3223-0.75 2.0312-0.38271 1.193-0.65935 2.3103-0.8125 3.375-0.83817 0.01702-1.6766 0.28544-2.5312 0.78125-0.302 0.175-0.5895 0.27075-0.8125 0.34375 1e-3 -0.032-2e-3 -0.05775 0-0.09375 0.032-0.569 0.218-1.3418 0.5-2.2188 0.296-0.929 0.64825-1.723 1.0312-2.375 0.328-0.557 0.65625-1.0098 1.0312-1.3438 0.169-0.151 0.64125-0.529 1.1562-0.75 0.284-0.121 0.39925-0.123 0.40625-0.125zm-24.156 0.0625c0 0.044 3e-3 0.10125 0 0.15625-0.025 0.541-0.1725 1.2658-0.4375 2.0938-0.307 0.957-0.67049 1.7605-1.0625 2.4375-0.333 0.571-0.68249 1.034-1.0625 1.375-0.364 0.328-0.70825 0.57875-1.0312 0.71875-0.132 0.057-0.27925 0.102-0.40625 0.125 0-0.044-3e-3 -0.10225 0-0.15625 0.034-0.571 0.221-1.3438 0.5-2.2188 0.298-0.928 0.64625-1.719 1.0312-2.375 0.327-0.555 0.65424-1.0078 1.0312-1.3438 0.359-0.321 0.73549-0.5475 1.0625-0.6875 0.133-0.057 0.244-0.101 0.375-0.125zm37.5 0c0 0.044 3e-3 0.10025 0 0.15625-0.025 0.541-0.1725 1.2668-0.4375 2.0938-0.309 0.964-0.6695 1.7938-1.0625 2.4688-0.331 0.57-0.6865 1.0068-1.0625 1.3438-0.368 0.331-0.7375 0.57875-1.0625 0.71875-0.131 0.057-0.249 0.102-0.375 0.125 0-0.045-3e-3 -0.10125 0-0.15625 0.033-0.568 0.18875-1.3438 0.46875-2.2188 0.298-0.933 0.64925-1.725 1.0312-2.375 0.328-0.557 0.6885-1.0098 1.0625-1.3438 0.361-0.323 0.70225-0.5465 1.0312-0.6875 0.132-0.057 0.27525-0.101 0.40625-0.125zm-88.156 0.21875c-0.069 0.548-0.22475 1.2088-0.46875 1.9688-0.317 0.99-0.69775 1.8352-1.0938 2.5312-0.333 0.586-0.66925 1.0742-1.0312 1.4062-0.27 0.249-0.5035 0.41425-0.6875 0.53125 0.069-0.55 0.22275-1.235 0.46875-2 0.304-0.945 0.6675-1.7868 1.0625-2.4688 0.341-0.594 0.719-1.0585 1.125-1.4375 0.239-0.223 0.452-0.40625 0.625-0.53125z" fill="#fff" filter="url(#a)" opacity=".66" stroke="#000" stroke-width=".1"/>
<path d="m17.725 5.0628c-0.951 0-1.7988 0.599-2.0938 1.5-1.601 4.884-9.4688 28.906-9.4688 28.906-0.212 0.66-0.0985 1.3968 0.3125 1.9688 0.411 0.565 1.0832 0.90625 1.7812 0.90625h2.9063c0.951 0 1.7988-0.62825 2.0938-1.5312l1.9375-5.9375 1.625 5.8438c0.261 0.949 1.1098 1.625 2.0938 1.625h3.5938c0.683 0 1.336-0.327 1.75-0.875 0.31125-0.41325 0.46347-0.92933 0.4375-1.4375-0.02222 0.49335 0.10865 0.9984 0.40625 1.4062 0.407 0.554 1.0742 0.89825 1.7812 0.90625v-0.03125h2.8438c0.953 0 1.7988-0.588 2.0938-1.5l3.0938-9.6875c0.188-0.587 0.41825-1.1625 0.65625-1.6875 0.241-0.534 0.49725-1.0622 0.78125-1.5312 0.143-0.235 0.30175-0.41675 0.46875-0.59375 0.146-0.156 0.30175-0.29525 0.46875-0.40625 0.151-0.098 0.3045-0.17575 0.4375-0.21875 0.086-0.028 0.172-0.0625 0.25-0.0625 0.093 0 0.177 0.0365 0.25 0.0625 0.074 0.026 0.13575 0.057 0.21875 0.125 0.391 0.319 0.90225 0.5 1.4062 0.5h0.21875l0.125-0.03125c0.61-0.093 1.1248-0.4185 1.4688-0.9375l0.09375-0.125-7.7188 23.594c-0.215 0.662-0.1005 1.3968 0.3125 1.9688 0.412 0.565 1.053 0.90625 1.75 0.90625h2.875c0.953 0 1.7755-0.611 2.0625-1.5l3.0312-8.9688c0.255 0.114 0.5385 0.20425 0.8125 0.28125 0.582 0.165 1.199 0.25 1.875 0.25 0.862 0 1.746-0.14525 2.625-0.40625 0.842-0.249 1.7105-0.61375 2.5625-1.0938 0.865-0.485 1.6865-1.0932 2.4375-1.7812 0.38032-0.34743 0.73779-0.72204 1.0938-1.125 0.13252 0.66247 0.37674 1.277 0.71875 1.8438 0.538 0.886 1.3012 1.567 2.2812 2 0.84 0.37 1.8408 0.5625 2.9688 0.5625 0.647 0 1.3015-0.0595 1.9375-0.1875 0.633-0.13 1.263-0.34075 1.875-0.59375 0.164-0.069 0.328-0.13675 0.5-0.21875 0.393 0.361 0.935 0.59375 1.5 0.59375h2.9688c0.42478 0 0.83564-0.14763 1.1875-0.375 0.34985 0.22493 0.73165 0.375 1.1562 0.375h2.875c0.953 0 1.7988-0.61925 2.0938-1.5312l3.2188-10.125c0.326-1.019 0.70075-1.8692 1.0938-2.5312 0.322-0.54 0.669-0.9435 1-1.1875 0.404-0.297 0.7995-0.51725 1.1875-0.65625 0.355-0.126 0.7105-0.1875 1.0625-0.1875 0.143 0 0.2435 0.01925 0.3125 0.03125-4e-3 0.1-0.02775 0.26875-0.09375 0.59375-0.081 0.395-0.195 0.90575-0.375 1.4688l-3.625 11.25c-0.209 0.66-0.0995 1.3988 0.3125 1.9688 0.409 0.558 1.0802 0.90225 1.7812 0.90625h2.8438c0.955 0 1.8018-0.62025 2.0938-1.5312l1.0938-3.4375c0.15593 0.63142 0.3892 1.2111 0.6875 1.75 0.674 1.219 1.6308 2.136 2.8438 2.75 1.124 0.571 2.4468 0.875 3.9688 0.875 0.911 0 1.832-0.10975 2.75-0.34375 0.89299-0.229 1.8075-0.58325 2.6875-1.0312 0.884-0.45 1.7088-0.998 2.4688-1.625 0.46318-0.38102 0.89361-0.8023 1.3125-1.25-0.0487 0.69954 0.0802 1.3785 0.40625 1.9688 0.583 1.053 1.6825 1.6875 2.9375 1.6875 0.945 0 1.91-0.346 2.75-1 0.776-0.606 1.3695-1.4325 1.6875-2.3125 0.0149-0.04083 0.0176-0.08415 0.0312-0.125 0.0636 0.13558 0.1157 0.27611 0.1875 0.40625 0.721 1.3 1.837 2.3145 3.25 2.9375 1.013 0.45 2.1688 0.6875 3.3438 0.6875 0.233 0 0.48175-0.01225 0.71875-0.03125 0.47-0.037 0.93725-0.1035 1.4062-0.1875 0.483-0.087 0.95725-0.1805 1.4062-0.3125l0.3438-0.09375c0.312-0.084 0.64875-0.2015 0.96875-0.3125 0.785-0.269 1.3588-0.59225 1.8438-1.0312 0.27635-0.25019 0.50912-0.549 0.6875-0.875 0.6171 0.83074 1.3805 1.497 2.3125 1.9688 1.125 0.571 2.479 0.875 4 0.875 0.909 0 1.829-0.10975 2.75-0.34375 0.894-0.23 1.8105-0.58425 2.6875-1.0312 0.886-0.45 1.7118-0.999 2.4688-1.625 0.3765-0.3095 0.74225-0.64138 1.0938-1l-0.28125 0.90625c-0.213 0.662-0.1035 1.3958 0.3125 1.9688 0.412 0.56 1.0882 0.90625 1.7812 0.90625h2.8438c0.957 0 1.8038-0.62125 2.0938-1.5312l3.25-10.094c0.327-1.02 0.6695-1.8692 1.0625-2.5312 0.32-0.538 0.668-0.97475 1-1.2188 0.406-0.297 0.831-0.50725 1.25-0.65625 0.255-0.097 0.40425-0.113 0.53125-0.125-6e-3 0.107-0.0308 0.28575-0.0937 0.59375-0.08 0.391-0.194 0.8715-0.375 1.4375l-3.625 11.281c-0.209 0.662-0.1005 1.3695 0.3125 1.9375 0.413 0.56 1.0872 0.90625 1.7812 0.90625h2.8437c0.961 0 1.8088-0.62425 2.0938-1.5312l3.6562-11.375c0.234-0.729 0.4205-1.355 0.5625-1.875 0.1-0.243 0.44975-0.6255 0.84375-0.8125-4e-3 0.016 3e-3 0.01525 0 0.03125-0.08 0.391-0.22525 0.8715-0.40625 1.4375l-3.5938 11.25c-0.218 0.665-0.1055 1.424 0.3125 2 0.413 0.56 1.056 0.875 1.75 0.875h2.875c0.957 0 1.8038-0.62125 2.0938-1.5312l3.625-11.375c0.246-0.763 0.44975-1.4035 0.59375-1.9375 0.164-0.611 0.2575-1.101 0.3125-1.5 0.078-0.577 0.0955-1.1182 0.0625-1.6562-0.036-0.569-0.11725-1.123-0.28125-1.625-0.199-0.605-0.53175-1.1622-0.96875-1.6562-0.399-0.448-0.89975-0.84125-1.4688-1.1562-0.538-0.3-1.115-0.51025-1.75-0.65625-0.744-0.173-2.2135-0.21875-2.5625-0.21875-0.811 0-1.607 0.08825-2.375 0.28125-0.486 0.121-0.9675 0.302-1.4375 0.5-0.481-0.246-1.0055-0.4335-1.5625-0.5625-0.594-0.138-1.2352-0.21875-1.9062-0.21875-1.532 0-2.3578 0.37325-3.4688 0.90625-0.385-0.308-0.872-0.5-1.375-0.5h-2.5625c-0.962 0-1.8098 0.62425-2.0938 1.5312l-1 3.1562c-0.16143-0.59498-0.36608-1.1682-0.65625-1.6875-0.677-1.212-1.6428-2.133-2.8438-2.75-1.121-0.576-2.4345-0.875-3.9375-0.875-1.281 0-2.5632 0.23525-3.7812 0.65625-1.192 0.411-2.3498 1.0308-3.4688 1.8438-0.14278 0.1042-0.26719 0.2334-0.40625 0.34375-0.24046-0.77526-0.78796-1.4364-1.5625-1.875-0.428-0.245-0.83075-0.383-1.2188-0.5-0.999-0.304-2.063-0.4375-3.125-0.4375-0.382 0-0.746 0.0225-1.125 0.0625-1.387 0.144-2.7462 0.5445-4.0312 1.1875-0.343 0.173-0.69225 0.3545-1.0312 0.5625-0.327 0.2-0.65175 0.42525-0.96875 0.65625-1.338 0.977-2.521 2.2075-3.5 3.6875-0.946 1.429-1.7348 3.1322-2.3438 5.0312-0.567 1.761-0.853 3.344-0.875 4.75-0.61076-0.60106-1.4502-0.9375-2.375-0.9375-0.68981 0-1.3746 0.1756-2.0312 0.53125 0.47116-0.98076 0.89547-2.0791 1.2812-3.2812 0.536-1.673 0.8075-3.2148 0.8125-4.5938 1e-3 -1.528-0.31875-2.9025-0.96875-4.0625-0.677-1.212-1.6428-2.133-2.8438-2.75-1.121-0.576-2.4345-0.875-3.9375-0.875-1.281 0-2.5632 0.23525-3.7812 0.65625-1.194 0.412-2.3518 1.0318-3.4688 1.8438-1.1002 0.80338-2.0758 1.7898-2.9375 2.9375-0.0019-0.04135 0.0025-0.084 0-0.125-0.034-0.569-0.1465-1.119-0.3125-1.625-0.202-0.612-0.5075-1.144-0.9375-1.625-0.397-0.449-0.89175-0.8685-1.4688-1.1875-0.538-0.299-1.1502-0.51025-1.7812-0.65625-0.594-0.138-1.2362-0.21875-1.9062-0.21875-1.433 0-2.7908 0.30725-4.0938 0.90625-0.386-0.309-0.873-0.46875-1.375-0.46875h-2.5938c-0.961 0-1.7765 0.62425-2.0625 1.5312l-0.5625 1.75c-0.04545-0.13768-0.0691-0.27806-0.125-0.40625-0.242-0.565-0.635-1.0782-1.125-1.5312-0.416-0.379-0.911-0.719-1.5-1-0.387-0.182-0.809-0.3265-1.25-0.4375-0.417-0.106-0.85525-0.204-1.2812-0.25-0.213-0.029-0.4545-0.0465-0.6875-0.0625-0.232-0.016-0.46775-0.03125-0.71875-0.03125-0.704 0-1.3885 0.07775-2.0625 0.21875-0.674 0.143-1.3418 0.37225-1.9688 0.65625-0.483 0.222-0.93925 0.48075-1.2812 0.71875-1.403 0.871-2.193 2.1898-2.25 3.7188-0.04 1.228 0.4225 1.9408 0.8125 2.3438 0.433 0.448 1.0102 0.7485 1.6562 0.8125-0.178 0.031-0.37025 0.06275-0.53125 0.09375-0.485 0.095-0.86375 0.17425-1.2188 0.28125-0.483 0.152-0.97025 0.3505-1.4062 0.5625-0.33919 0.16348-0.66726 0.35439-1 0.5625 0.02581-0.146 0.07254-0.294 0.09375-0.4375 0.143-0.948 0.176-1.8832 0.125-2.7812-0.056-0.975-0.2445-1.8672-0.5625-2.6562-0.343-0.859-0.82875-1.629-1.4688-2.25-0.644-0.624-1.4242-1.0992-2.2812-1.4062-0.8-0.29-1.6812-0.4375-2.6562-0.4375-0.711 0-1.4288 0.096-2.0938 0.25-0.575 0.132-1.1405 0.3075-1.6875 0.5625-0.365-0.255-0.797-0.375-1.25-0.375h-2.5938c-0.93225 0-1.7545 0.57452-2.0625 1.4375-0.08901-0.11673-0.19804-0.21311-0.3125-0.3125-0.577-0.499-1.202-0.89425-1.875-1.1562-0.688-0.265-1.4092-0.40625-2.1562-0.40625-0.549 0-1.1072 0.11225-1.6562 0.28125-0.355 0.11-0.7095 0.2555-1.0625 0.4375-0.321-0.178-0.6875-0.28125-1.0625-0.28125h-2.5625c-0.957 0-1.8028 0.62125-2.0938 1.5312l-5.9375 18.5c-0.05325 0.16625-0.08131 0.32892-0.09375 0.5-0.01186-0.14842-0.01975-0.29281-0.0625-0.4375l-3.0312-10.219 7.6562-5.9688c0.742-0.572 1.055-1.5455 0.75-2.4375-0.304-0.885-1.1578-1.4688-2.0938-1.4688h-3.7812c-0.494 0-0.98 0.15575-1.375 0.46875l-3.5938 2.9062s2.9238-8.83 3.5938-10.875c0.215-0.663 0.0955-1.4038-0.3125-1.9688-0.411-0.569-1.0812-0.90625-1.7812-0.90625h-2.9375zm34.406 16.781c0.114 0 0.2395 0.0135 0.3125 0.0625 0.059 0.041 0.158 0.16 0.25 0.375 0.063 0.146 0.174 0.4995 0.125 1.1875-0.052 0.709-0.2405 1.5888-0.5625 2.5938-0.347 1.083-0.7435 2.0315-1.1875 2.8125-0.406 0.714-0.8435 1.2878-1.3125 1.7188-0.471 0.433-0.947 0.7395-1.375 0.9375-0.341 0.158-0.65575 0.25-0.96875 0.25-0.133 0-0.31825-0.0055-0.40625-0.0625-0.099-0.066-0.196-0.22275-0.25-0.34375-0.047-0.105-0.14275-0.432-0.09375-1.125 0.051-0.708 0.2365-1.5798 0.5625-2.5938 0.334-1.038 0.7425-1.9498 1.1875-2.7188 0.412-0.715 0.866-1.3375 1.375-1.8125 0.511-0.477 1.0035-0.82025 1.4375-1.0312 0.333-0.162 0.63725-0.25 0.90625-0.25zm15.969 0.125c0.195 0 0.372 0.02775 0.5 0.09375-0.017 0.131-0.058 0.3235-0.125 0.5625-0.063 0.017-0.1245 0.0455-0.1875 0.0625-0.742 0.202-1.5292 0.37525-2.5312 0.53125l0.0625-0.03125 0.09375-0.0625c0.496-0.276 0.90275-0.55975 1.2188-0.84375 0.226-0.184 0.60875-0.3125 0.96875-0.3125zm58.125 0c0.078 0 0.15375-0.011 0.21875 0 0.101 0.017 0.2045 0.05475 0.3125 0.09375 0.143 0.052 0.21275 0.08975 0.21875 0.09375 0.625 0.397 1.2338 0.60925 1.8438 0.65625 0.0516 0.0045 0.10462 0.02956 0.15625 0.03125-0.53447 1.0339-1.0147 2.1548-1.4062 3.375-0.54497 1.6957-0.86437 3.2222-0.90625 4.5938-0.28659-0.12737-0.58593-0.19705-0.90625-0.21875l-0.1875-0.03125h-0.0937c-0.614 0-1.211 0.20875-1.875 0.59375-0.591 0.342-1.2248 0.562-1.7188 0.625-0.091 0.011-0.19425 0.03125-0.28125 0.03125-0.338 0-0.42575-0.11625-0.46875-0.15625-0.07-0.066-0.15575-0.13575-0.21875-0.21875-0.06-0.079-0.11-0.1575-0.125-0.1875-0.068-0.14-0.163-0.452-0.125-1.125 0.038-0.699 0.20825-1.5595 0.53125-2.5625 0.328-1.026 0.71925-1.9435 1.1562-2.6875 0.401-0.684 0.85875-1.2545 1.3438-1.6875 0.275-0.245 0.84925-0.67675 1.5312-0.96875 0.374-0.16 0.704-0.25 1-0.25zm-23.906 0.03125c0.389 0 0.5935 0.07 0.6875 0.125 0.081 0.047 0.1875 0.14525 0.3125 0.40625 0.069 0.142 0.18725 0.476 0.15625 1.125-0.032 0.673-0.22425 1.4805-0.53125 2.4375-0.338 1.056-0.7455 1.986-1.1875 2.75-0.408 0.699-0.85474 1.2798-1.3437 1.7188-0.47899 0.431-0.94024 0.76775-1.4062 0.96875-0.405 0.175-0.81475 0.25-1.2188 0.25-0.408 0-0.63375-0.075-0.71875-0.125-0.08-0.048-0.16225-0.15425-0.28125-0.40625-0.069-0.142-0.19225-0.458-0.15625-1.125 0.04-0.697 0.2425-1.5585 0.5625-2.5625 0.33-1.028 0.688-1.9435 1.125-2.6875 0.399-0.682 0.85575-1.2525 1.3438-1.6875 0.47499-0.424 0.96849-0.7375 1.4375-0.9375 0.407-0.175 0.80575-0.25 1.2188-0.25zm37.5 0c0.389 0 0.56425 0.071 0.65625 0.125 0.081 0.048 0.1875 0.14425 0.3125 0.40625 0.069 0.143 0.18725 0.477 0.15625 1.125-0.032 0.673-0.193 1.4805-0.5 2.4375-0.339 1.057-0.7425 1.986-1.1875 2.75-0.407 0.7-0.85775 1.2818-1.3438 1.7188-0.483 0.433-0.9715 0.76775-1.4375 0.96875-0.403 0.175-0.81575 0.25-1.2188 0.25-0.408 0-0.6025-0.075-0.6875-0.125-0.08-0.048-0.1935-0.15425-0.3125-0.40625-0.069-0.142-0.162-0.455-0.125-1.125 0.039-0.697 0.21025-1.5585 0.53125-2.5625 0.331-1.03 0.72125-1.9475 1.1562-2.6875 0.401-0.684 0.85875-1.2545 1.3438-1.6875 0.477-0.425 0.93625-0.7365 1.4062-0.9375 0.405-0.175 0.837-0.25 1.25-0.25zm-74.187 8.1562c-0.017 0.024-0.0465 0.0395-0.0625 0.0625-0.184 0.265-0.38675 0.53425-0.59375 0.78125-0.535 0.64-1.2968 0.821-1.8438 0.875-0.076 7e-3 -0.14175 0.03125-0.21875 0.03125-0.079 0-0.17425-0.01625-0.28125-0.03125 8e-3 -0.032 0.02025-0.05475 0.03125-0.09375 0.038-0.129 0.09325-0.254 0.15625-0.375 0.06-0.115 0.12975-0.23575 0.21875-0.34375 0.082-0.101 0.167-0.186 0.25-0.25 0.084-0.066 0.18325-0.11125 0.28125-0.15625 0.058-0.027 0.23175-0.12275 0.59375-0.21875 0.344-0.089 0.773-0.169 1.25-0.25 0.072-0.012 0.14775-0.01825 0.21875-0.03125z" fill="#fff" stroke="#000" stroke-width=".1"/>
<g transform="translate(2.1314 .031539)" stroke="#fff" stroke-width=".5"><path d="m16.788 36.653c-0.247 0-0.463-0.166-0.528-0.404l-2.368-8.677-1.974 1.524-2.353 7.179c-0.074 0.226-0.284 0.378-0.52 0.378h-2.915c-0.175 0-0.34-0.085-0.443-0.227-0.103-0.144-0.131-0.325-0.077-0.492 3.258-9.943 6.313-19.308 9.451-28.882 0.074-0.226 0.283-0.376 0.52-0.376l2.949 2e-3c0.176 0 0.34 0.084 0.443 0.227s0.131 0.324 0.077 0.491c-0.796 2.429-1.87 5.688-2.943 8.949-0.833 2.527-1.665 5.056-2.368 7.195l7.93-6.375c0.097-0.077 0.218-0.12 0.343-0.12h3.774c0.233 0 0.441 0.147 0.517 0.369s3e-3 0.467-0.182 0.609l-8.532 6.64 3.319 11.287c0.049 0.165 0.017 0.346-0.086 0.482-0.104 0.138-0.266 0.22-0.438 0.22h-3.596z"/><path d="m24.737 36.653c-0.174 0-0.338-0.084-0.441-0.225-0.104-0.143-0.132-0.324-0.079-0.49l5.938-18.513c0.073-0.228 0.283-0.38 0.521-0.38h2.569c0.175 0 0.339 0.084 0.441 0.225 0.104 0.141 0.132 0.323 0.08 0.489l-0.136 0.424c0.395-0.37 0.749-0.649 1.079-0.85 0.382-0.231 0.768-0.408 1.147-0.525 0.389-0.12 0.782-0.182 1.168-0.182 0.546 0 1.075 0.099 1.571 0.29 0.492 0.191 0.961 0.479 1.396 0.855 0.207 0.18 0.25 0.485 0.099 0.714l-1.917 2.912c-0.085 0.129-0.222 0.217-0.375 0.24-0.027 4e-3 -0.055 6e-3 -0.082 6e-3 -0.125 0-0.248-0.043-0.347-0.124-0.227-0.187-0.47-0.327-0.722-0.418-0.251-0.091-0.522-0.137-0.806-0.137-0.252 0-0.51 0.042-0.766 0.127-0.267 0.088-0.54 0.223-0.813 0.401-0.277 0.183-0.539 0.403-0.776 0.656-0.242 0.258-0.467 0.557-0.669 0.889-0.324 0.535-0.622 1.105-0.887 1.692-0.266 0.588-0.504 1.211-0.709 1.851l-3.108 9.692c-0.073 0.227-0.283 0.381-0.521 0.381h-2.855z"/><path d="m52.327 23.559c-0.06 0.835-0.273 1.833-0.636 2.967-0.383 1.195-0.831 2.246-1.329 3.123-0.49 0.86-1.04 1.575-1.636 2.123s-1.194 0.963-1.776 1.232c-0.562 0.261-1.126 0.392-1.678 0.392-0.52 0-0.945-0.11-1.298-0.337-0.352-0.229-0.628-0.572-0.841-1.048-0.217-0.483-0.299-1.126-0.243-1.911 0.06-0.833 0.275-1.836 0.643-2.98 0.369-1.146 0.811-2.171 1.314-3.041 0.494-0.856 1.064-1.59 1.69-2.174 0.625-0.584 1.238-1.028 1.825-1.314 0.56-0.273 1.108-0.411 1.627-0.411 0.506 0 0.919 0.111 1.263 0.345 0.343 0.233 0.624 0.599 0.833 1.084 0.217 0.503 0.299 1.159 0.242 1.95zm4.065-1.754c-0.046-0.796-0.197-1.518-0.45-2.145-0.257-0.642-0.628-1.202-1.1-1.66-0.474-0.459-1.04-0.809-1.68-1.037-0.624-0.226-1.336-0.338-2.115-0.338-0.588 0-1.162 0.064-1.706 0.19-0.548 0.126-1.078 0.321-1.576 0.574-0.458 0.234-0.919 0.525-1.375 0.869l0.161-0.502c0.054-0.167 0.024-0.348-0.079-0.49-0.104-0.141-0.267-0.226-0.443-0.226h-2.599c-0.237 0-0.447 0.154-0.52 0.382l-9.452 28.874c-0.054 0.166-0.024 0.348 0.078 0.489 0.103 0.142 0.267 0.226 0.441 0.226h2.854c0.237 0 0.447-0.155 0.52-0.382l3.76-11.125c0.243 0.296 0.53 0.563 0.857 0.799 0.357 0.257 0.767 0.452 1.218 0.578 0.438 0.124 0.925 0.187 1.449 0.187 0.699 0 1.423-0.107 2.156-0.324 0.72-0.213 1.467-0.535 2.218-0.959 0.75-0.42 1.469-0.941 2.131-1.549 0.661-0.604 1.285-1.307 1.857-2.091 0.566-0.779 1.078-1.618 1.517-2.493 0.438-0.875 0.819-1.809 1.128-2.777 0.291-0.906 0.502-1.792 0.626-2.631 0.128-0.843 0.168-1.665 0.124-2.439z"/><path d="m66.378 27.801c0.137 0.053-0.515 1.476-0.587 1.625-0.288 0.594-0.624 1.164-1 1.706-0.212 0.306-0.438 0.603-0.677 0.889-0.742 0.886-1.803 1.36-2.947 1.473-0.327 0.032-0.658 0.026-0.983-0.03-0.421-0.075-0.868-0.135-1.117-0.527-0.129-0.204-0.203-0.433-0.224-0.692-0.023-0.281 0.015-0.603 0.116-0.955 0.068-0.235 0.16-0.465 0.272-0.68s0.249-0.423 0.408-0.615c0.156-0.19 0.328-0.362 0.511-0.506 0.182-0.143 0.38-0.265 0.592-0.363 0.218-0.102 0.515-0.202 0.88-0.299 0.382-0.099 0.846-0.194 1.378-0.285 0.782-0.132 1.503-0.275 2.148-0.432 0.213-0.051 0.419-0.128 0.629-0.193 0.16-0.052 0.444-0.176 0.601-0.116zm6-7.762c-0.039-0.41-0.131-0.79-0.276-1.122-0.15-0.351-0.384-0.675-0.694-0.961-0.293-0.268-0.664-0.511-1.102-0.72-0.282-0.133-0.603-0.247-0.954-0.335-0.342-0.087-0.722-0.154-1.11-0.197-0.179-0.024-0.369-0.044-0.565-0.058-0.195-0.014-0.399-0.021-0.61-0.021-0.596 0-1.179 0.061-1.733 0.177-0.556 0.118-1.098 0.295-1.613 0.528-0.388 0.179-0.757 0.385-1.096 0.618-0.879 0.546-1.45 1.352-1.488 2.377-0.044 1.33 0.789 1.716 1.846 1.325 0.453-0.252 0.752-0.479 0.979-0.682 0.847-0.688 2.256-0.895 3.242-0.396 0.252 0.127 0.592 0.346 0.759 0.578 0.116 0.162 0.17 0.411 0.164 0.739-0.01 0.396-0.108 0.894-0.297 1.481-0.018 0.055-0.05 0.149-0.095 0.28-0.092 0.271-0.149 0.287-0.417 0.37-0.241 0.075-0.483 0.144-0.726 0.21-1.119 0.306-2.261 0.503-3.408 0.663-0.532 0.077-1.007 0.156-1.417 0.235-0.422 0.083-0.77 0.166-1.065 0.255-0.396 0.124-0.788 0.277-1.166 0.461-0.375 0.181-0.745 0.394-1.104 0.635-0.361 0.246-0.712 0.533-1.04 0.855-0.324 0.319-0.637 0.684-0.926 1.078-0.292 0.399-0.55 0.825-0.766 1.269-0.214 0.441-0.392 0.909-0.531 1.392-0.238 0.83-0.334 1.603-0.292 2.295 0.046 0.723 0.243 1.376 0.588 1.947 0.359 0.592 0.878 1.042 1.544 1.336 0.629 0.277 1.405 0.418 2.302 0.418 0.533 0 1.073-0.055 1.604-0.164 0.527-0.107 1.06-0.271 1.584-0.487 0.405-0.166 0.833-0.383 1.276-0.642 0.243-0.143 0.494-0.301 0.75-0.475-8e-3 0.309 6e-3 0.602 0.043 0.876 0.037 0.271 0.268 0.474 0.542 0.474h2.981c0.162 0 0.316-0.072 0.421-0.197 0.104-0.126 0.146-0.291 0.118-0.449-0.062-0.32-0.093-0.652-0.093-0.988-2e-3 -0.339 0.027-0.69 0.085-1.048 0.058-0.36 0.22-0.999 0.479-1.898 0.261-0.902 0.629-2.1 1.097-3.557l1.341-4.184c0.224-0.7 0.405-1.305 0.539-1.793 0.137-0.507 0.226-0.896 0.268-1.199 0.059-0.47 0.071-0.905 0.032-1.299z"/><path d="m81.281 36.653c-0.175 0-0.339-0.084-0.442-0.225-0.103-0.143-0.132-0.324-0.079-0.49l3.612-11.261c0.198-0.617 0.346-1.161 0.439-1.618 0.089-0.435 0.13-0.793 0.122-1.066-7e-3 -0.241-0.054-0.458-0.139-0.643-0.083-0.181-0.202-0.336-0.364-0.475-0.167-0.142-0.361-0.246-0.594-0.318-0.248-0.077-0.537-0.117-0.859-0.117-0.542 0-1.085 0.097-1.616 0.286-0.54 0.193-1.083 0.489-1.615 0.88-0.515 0.379-0.999 0.945-1.438 1.683-0.455 0.766-0.872 1.731-1.237 2.873l-3.243 10.111c-0.073 0.227-0.283 0.381-0.521 0.381h-2.854c-0.174 0-0.339-0.084-0.442-0.226s-0.132-0.323-0.079-0.489l5.937-18.513c0.072-0.228 0.283-0.38 0.521-0.38h2.569c0.174 0 0.339 0.083 0.442 0.225s0.132 0.323 0.079 0.49l-0.218 0.68c0.525-0.398 1.065-0.731 1.617-0.997 1.126-0.542 2.328-0.817 3.573-0.817 0.546 0 1.063 0.056 1.536 0.165 0.482 0.111 0.932 0.282 1.335 0.506 0.414 0.229 0.762 0.502 1.036 0.811 0.283 0.317 0.492 0.679 0.623 1.075 0.121 0.369 0.196 0.773 0.223 1.205 0.025 0.419 8e-3 0.875-0.057 1.354-0.043 0.318-0.135 0.732-0.278 1.271-0.138 0.512-0.327 1.144-0.562 1.877l-3.651 11.383c-0.073 0.227-0.283 0.381-0.521 0.381l-2.855-2e-3z"/><path d="m100.19 20.318c-0.637 0-1.271 0.133-1.885 0.396-0.629 0.269-1.258 0.681-1.867 1.226-0.612 0.546-1.172 1.245-1.659 2.078-0.497 0.847-0.935 1.854-1.302 2.997-0.362 1.136-0.571 2.136-0.619 2.974-0.043 0.791 0.058 1.447 0.297 1.949 0.234 0.495 0.547 0.853 0.951 1.093 0.41 0.243 0.928 0.366 1.537 0.366 0.629 0 1.261-0.135 1.873-0.4 0.627-0.271 1.256-0.688 1.867-1.237 0.615-0.553 1.178-1.263 1.672-2.111 0.502-0.866 0.947-1.898 1.322-3.07 0.352-1.094 0.549-2.062 0.588-2.877 0.037-0.771-0.066-1.417-0.311-1.922-0.237-0.496-0.549-0.854-0.953-1.094-0.402-0.245-0.912-0.368-1.511-0.368zm-5.373 16.753c-1.26 0-2.352-0.229-3.243-0.683-0.916-0.464-1.64-1.168-2.151-2.093-0.505-0.912-0.75-2.027-0.729-3.316 0.021-1.244 0.294-2.69 0.811-4.298 0.563-1.754 1.286-3.306 2.149-4.61 0.872-1.317 1.913-2.422 3.092-3.282 0.983-0.715 2.01-1.259 3.049-1.617 1.045-0.361 2.132-0.545 3.229-0.545 1.24 0 2.315 0.23 3.203 0.687 0.905 0.465 1.629 1.17 2.146 2.095 0.513 0.914 0.771 2.006 0.769 3.248-4e-3 1.203-0.25 2.582-0.736 4.1-0.389 1.212-0.826 2.312-1.299 3.268-0.479 0.967-1.008 1.818-1.572 2.527-0.564 0.71-1.191 1.35-1.86 1.9-0.671 0.554-1.403 1.033-2.178 1.428s-1.56 0.694-2.333 0.893c-0.781 0.196-1.571 0.298-2.347 0.298z"/><path d="m161.23 36.862c-0.175 0-0.339-0.084-0.442-0.225-0.104-0.143-0.133-0.323-0.078-0.49l3.611-11.261c0.197-0.616 0.346-1.161 0.438-1.619 0.089-0.435 0.13-0.792 0.122-1.066-0.051-0.509-0.209-0.725-0.688-0.967-1.57-0.456-3.105 0.945-3.457 1.986-0.139 0.512-0.328 1.144-0.563 1.876l-3.65 11.383c-0.071 0.227-0.282 0.381-0.521 0.381h-2.854c-0.175 0-0.339-0.084-0.442-0.225-0.104-0.143-0.131-0.323-0.078-0.49l3.611-11.261c0.197-0.616 0.346-1.161 0.438-1.619 0.089-0.435 0.13-0.792 0.122-1.066-8e-3 -0.241-0.055-0.458-0.139-0.643-0.084-0.182-0.203-0.336-0.364-0.475-0.666-0.54-1.488-0.446-2.272-0.148-0.539 0.192-1.083 0.489-1.615 0.88-0.516 0.379-1 0.945-1.438 1.682-0.455 0.767-0.872 1.732-1.238 2.873l-3.242 10.11c-0.072 0.227-0.283 0.381-0.521 0.381h-2.854c-0.175 0-0.338-0.084-0.441-0.225-0.104-0.143-0.133-0.323-0.079-0.49l5.938-18.513c0.071-0.228 0.282-0.381 0.521-0.381h2.567c0.176 0 0.34 0.083 0.442 0.226 0.103 0.141 0.132 0.323 0.079 0.489l-0.219 0.682c0.525-0.398 1.064-0.731 1.615-0.997 1.127-0.542 1.688-0.817 2.933-0.817 0.546 0 1.063 0.056 1.536 0.165 0.48 0.111 0.932 0.281 1.334 0.507 0.154 0.086 0.303 0.18 0.439 0.278 0.019 0.015 0.037 0.028 0.057 0.042 4e-3 -2e-3 7e-3 -3e-3 0.012-5e-3 8e-3 -5e-3 0.018-9e-3 0.025-0.014 0.018-8e-3 0.033-0.017 0.051-0.023 0.598-0.313 1.221-0.551 1.85-0.708 0.641-0.161 1.309-0.242 1.98-0.242 0.546 0 1.705 0.056 2.178 0.165 0.482 0.111 0.932 0.281 1.335 0.507 0.413 0.229 0.763 0.502 1.036 0.81 0.281 0.318 0.492 0.68 0.622 1.075 0.121 0.369 0.196 0.773 0.224 1.205 0.025 0.419 8e-3 0.876-0.057 1.354-0.044 0.318-0.135 0.732-0.279 1.271-0.138 0.512-0.326 1.144-0.563 1.876l-3.65 11.383c-0.072 0.227-0.283 0.381-0.52 0.381h-2.853v2e-3h1e-3z"/><path d="m137.68 20.318c-0.635 0-1.27 0.133-1.883 0.396-0.629 0.269-1.258 0.681-1.868 1.226-0.612 0.546-1.171 1.245-1.659 2.078-0.497 0.847-0.934 1.854-1.301 2.997-0.363 1.136-0.572 2.136-0.619 2.974-0.044 0.791 0.057 1.447 0.296 1.949 0.235 0.495 0.548 0.853 0.952 1.093 0.41 0.243 0.928 0.366 1.537 0.366 0.63 0 1.26-0.135 1.871-0.4 0.627-0.271 1.256-0.688 1.869-1.237 0.615-0.553 1.177-1.263 1.67-2.111 0.504-0.866 0.949-1.898 1.324-3.07 0.352-1.094 0.549-2.062 0.588-2.877 0.037-0.771-0.067-1.417-0.312-1.922-0.237-0.496-0.549-0.854-0.952-1.094-0.404-0.245-0.914-0.368-1.513-0.368zm-5.372 16.753c-1.26 0-2.351-0.229-3.243-0.683-0.916-0.464-1.64-1.168-2.15-2.093-0.506-0.912-0.75-2.027-0.729-3.316 0.021-1.244 0.293-2.69 0.809-4.298 0.563-1.754 1.287-3.306 2.15-4.61 0.873-1.317 1.913-2.422 3.092-3.282 0.984-0.715 2.01-1.259 3.049-1.617 1.045-0.361 2.131-0.545 3.229-0.545 1.239 0 2.315 0.23 3.203 0.687 0.905 0.465 1.629 1.17 2.146 2.095 0.512 0.914 0.771 2.006 0.769 3.248-3e-3 1.203-0.25 2.582-0.736 4.1-0.389 1.212-0.825 2.312-1.299 3.268-0.479 0.967-1.008 1.818-1.571 2.527-0.566 0.71-1.191 1.35-1.861 1.9-0.67 0.554-1.402 1.033-2.178 1.428-0.774 0.395-1.561 0.694-2.332 0.893-0.783 0.196-1.572 0.298-2.348 0.298z"/><path d="m107.36 36.484c-0.658 0-1.203-0.304-1.496-0.833-0.273-0.495-0.293-1.127-0.057-1.78 0.218-0.597 0.632-1.154 1.166-1.572 0.551-0.431 1.174-0.666 1.756-0.666 0.658 0 1.203 0.304 1.496 0.833 0.273 0.494 0.295 1.128 0.057 1.779-0.217 0.599-0.631 1.156-1.166 1.573-0.551 0.428-1.174 0.666-1.756 0.666z"/><path d="m118.62 37.076c-0.944 0-1.871-0.188-2.678-0.545-1.084-0.479-1.945-1.252-2.49-2.235-0.504-0.912-0.75-2.027-0.728-3.316 0.021-1.245 0.293-2.691 0.81-4.298 0.563-1.754 1.285-3.306 2.149-4.61 0.872-1.317 1.912-2.422 3.091-3.283 0.28-0.204 0.569-0.397 0.86-0.576 0.3-0.185 0.604-0.354 0.907-0.507 1.103-0.552 2.266-0.896 3.457-1.02 0.324-0.034 0.652-0.051 0.978-0.051 0.897 0 1.782 0.13 2.627 0.387 0.281 0.085 0.604 0.19 0.902 0.36 0.418 0.236 0.688 0.549 0.802 0.928l0.018 0.059c6e-3 0.026 0.011 0.045 0.014 0.064 0.096 0.462-0.027 0.964-0.355 1.451-0.236 0.351-0.578 0.687-0.938 0.924-0.354 0.232-0.719 0.351-1.084 0.351-0.043 0-0.088-1e-3 -0.133-5e-3 -0.355-0.027-0.707-0.157-1.105-0.41-0.146-0.094-0.334-0.182-0.538-0.255-0.196-0.071-0.403-0.125-0.599-0.158-0.16-0.026-0.328-0.041-0.497-0.041-0.521 0-1.077 0.126-1.657 0.375-0.848 0.363-1.537 0.895-1.965 1.276-0.612 0.546-1.171 1.245-1.659 2.078-0.497 0.847-0.935 1.855-1.3 2.998-0.365 1.136-0.573 2.136-0.619 2.974-0.045 0.791 0.055 1.446 0.295 1.949 0.07 0.146 0.172 0.309 0.297 0.471 0.119 0.155 0.254 0.305 0.391 0.431 0.414 0.383 0.953 0.575 1.604 0.575 0.15 0 0.311-0.01 0.471-0.029 0.723-0.092 1.553-0.394 2.336-0.848 0.41-0.237 0.754-0.35 1.076-0.35 0.028 0 0.061 0 0.09 3e-3 0.342 0.023 0.813 0.191 1.114 0.858 0.179 0.393 0.261 0.831 0.234 1.235-0.034 0.509-0.233 0.94-0.576 1.251-0.313 0.284-0.726 0.509-1.293 0.703-0.291 0.102-0.578 0.18-0.854 0.255-0.134 0.036-0.263 0.071-0.386 0.107-0.39 0.114-0.805 0.212-1.233 0.289-0.414 0.074-0.836 0.129-1.254 0.162-0.194 0.016-0.39 0.023-0.582 0.023z"/></g>
</svg>
